<?xml version="1.0" standalone="no"?>
<!DOCTYPE svg PUBLIC "-//W3C//DTD SVG 1.1//EN" "http://www.w3.org/Graphics/SVG/1.1/DTD/svg11.dtd" >
<svg xmlns="http://www.w3.org/2000/svg">
<metadata>Generated by IcoMoon</metadata>
<defs>
<font id="icomoon" horiz-adv-x="1024">
<font-face units-per-em="1024" ascent="960" descent="-64" />
<missing-glyph horiz-adv-x="1024" />
<glyph unicode="&#x20;" horiz-adv-x="512" d="" />
<glyph unicode="&#xe900;" glyph-name="more" d="M489.685 828.885c-28.629-7.509-52.864-32-60.459-61.227-1.576-6.242-2.48-13.407-2.48-20.784 0-14.551 3.519-28.28 9.752-40.383l-0.232 0.495c5.803-11.477 24.576-30.251 36.053-36.053 11.539-6.009 25.198-9.534 39.68-9.534s28.141 3.525 40.166 9.763l-0.486-0.229c11.349 5.76 30.208 24.533 35.883 35.755 6.043 11.576 9.589 25.283 9.589 39.818 0 7.188-0.867 14.173-2.502 20.856l0.124-0.599c-3.316 14.688-10.44 27.375-20.278 37.387l0.011-0.011c-15.542 17.049-37.844 27.706-62.634 27.706-7.893 0-15.534-1.080-22.782-3.101l0.595 0.142zM489.685 530.219c-28.629-7.509-52.864-32-60.459-61.227-1.576-6.242-2.48-13.407-2.48-20.784 0-14.551 3.519-28.28 9.752-40.383l-0.232 0.495c5.803-11.477 24.576-30.251 36.053-36.053 11.539-6.009 25.198-9.534 39.68-9.534s28.141 3.525 40.166 9.763l-0.486-0.229c11.349 5.76 30.208 24.533 35.883 35.755 6.043 11.576 9.589 25.283 9.589 39.818 0 7.188-0.867 14.173-2.502 20.856l0.124-0.599c-3.316 14.688-10.44 27.375-20.278 37.387l0.011-0.011c-15.454 17.011-37.662 27.648-62.355 27.648-0.053 0-0.107 0-0.16 0h0.008c-6.101 0-16.128-1.323-22.315-2.901zM489.685 231.552c-28.629-7.509-52.864-32-60.459-61.227-1.576-6.242-2.48-13.407-2.48-20.784 0-14.551 3.519-28.28 9.752-40.383l-0.232 0.495c5.803-11.477 24.576-30.251 36.053-36.053 11.539-6.009 25.198-9.534 39.68-9.534s28.141 3.525 40.166 9.763l-0.486-0.229c11.349 5.76 30.208 24.533 35.883 35.755 6.043 11.576 9.589 25.283 9.589 39.818 0 7.188-0.867 14.173-2.502 20.856l0.124-0.599c-3.316 14.688-10.44 27.375-20.278 37.387l0.011-0.011c-15.454 17.011-37.662 27.648-62.355 27.648-0.053 0-0.107 0-0.16 0h0.008c-6.101 0-16.128-1.323-22.315-2.901z" />
<glyph unicode="&#xe901;" glyph-name="close" d="M728.661 729.088c-4.267-1.195-10.411-3.84-13.653-5.888s-50.432-48.256-104.875-102.741c-54.443-54.485-99.755-99.072-100.693-99.072s-45.781 44.075-99.669 97.963c-69.12 69.12-100.224 99.115-105.813 101.973-11.264 5.76-33.451 5.76-44.544 0.043-19.328-10.027-29.611-26.709-29.739-48.085-0.085-22.4-3.371-18.432 106.752-128.853l98.731-99.029-98.176-98.091c-110.251-110.208-107.392-106.752-107.392-129.707 0-10.539 0.853-14.549 4.736-22.485 9.301-18.987 25.941-29.355 47.275-29.44 22.912-0.128 19.413-2.987 129.707 107.307l98.091 98.176 101.589-101.248c113.365-113.067 108.373-108.928 131.84-108.928 0.701-0.043 1.521-0.067 2.346-0.067 7.502 0 14.535 2.004 20.594 5.506l-0.199-0.106c18.901 9.344 28.843 25.259 28.757 46.165-0.128 23.296 4.011 18.304-108.288 130.603-55.381 55.339-100.651 101.376-100.651 102.315s45.611 47.403 101.333 103.253c112.896 113.152 107.819 107.008 107.648 130.688-0.128 27.307-20.352 48.811-47.957 51.115-1.32 0.105-2.858 0.165-4.411 0.165-4.731 0-9.331-0.558-13.74-1.612l0.401 0.081z" />
<glyph unicode="&#xe902;" glyph-name="arrow-right" d="M541.76 809.28c-14.073-5.312-24.877-16.473-29.594-30.437l-0.102-0.347c-0.943-3.961-1.484-8.508-1.484-13.181 0-7.618 1.437-14.9 4.055-21.59l-0.139 0.403c2.176-4.672 41.088-44.864 123.584-127.616l120.448-120.704h-304.896c-312.64 0-316.864-0.128-327.296-6.528-7.97-5.117-14.485-11.817-19.241-19.698l-0.151-0.27c-5.248-9.728-5.248-32.896 0-42.624 3.776-7.040 11.84-15.296 19.392-19.968 10.432-6.4 14.656-6.528 328.128-6.528l305.856-0.064-120.768-119.872c-133.504-132.544-129.216-127.552-129.216-148.992 0.212-21.144 14.117-38.984 33.261-45.091l0.339-0.093c3.774-0.866 8.107-1.362 12.556-1.362 7.641 0 14.939 1.463 21.631 4.125l-0.396-0.139c9.92 4.544 333.952 328.256 339.2 338.816 2.531 5.963 4.001 12.897 4.001 20.175 0 7.51-1.566 14.655-4.39 21.125l0.132-0.341c-2.752 5.376-52.608 56.384-167.168 171.008-180.096 180.16-171.072 172.096-192.256 171.904-5.514-0.004-10.846-0.774-15.898-2.212l0.41 0.1z" />
<glyph unicode="&#xe903;" glyph-name="eye" d="M482.112 847.36c-48.432-3.449-93.401-14.255-135.142-31.328l2.918 1.056c-100.864-41.408-188.288-115.968-257.728-219.776-21.568-32.128-31.744-55.744-39.68-92.032-3.264-15.040-3.776-22.208-3.712-57.28 0-34.944 0.512-42.368 3.776-57.472 9.28-42.56 23.552-71.296 60.096-120.896 29.056-39.424 73.92-86.72 107.52-113.408 63.104-50.176 134.528-84.992 203.52-99.136 55.040-11.328 121.6-11.328 176.64 0 113.856 23.36 222.528 96.384 304.96 204.864 41.216 54.208 56.448 83.776 66.176 128.576 3.264 15.168 3.776 22.464 3.776 57.472 0 34.88-0.512 42.304-3.776 57.28-9.792 44.992-24.896 74.752-64.96 127.808-80.064 105.984-188.224 180.032-298.944 204.672-29.573 6.597-63.538 10.377-98.386 10.377-9.517 0-18.968-0.282-28.346-0.838l1.292 0.061zM554.88 751.040c66.112-8.832 131.2-38.016 190.912-85.632 19.648-15.68 55.552-52.096 73.984-74.944 20.352-25.28 45.824-64 51.264-77.888 16.064-41.024 14.208-101.824-4.352-138.496-10.517-19.014-21.343-35.294-33.329-50.623l0.625 0.831c-87.424-116.48-203.136-181.76-321.984-181.76-119.104 0-234.368 65.024-321.984 181.76-26.368 35.136-36.352 53.184-42.816 77.504-3.84 14.4-4.352 19.776-4.352 45.376-0.064 31.488 1.984 44.608 10.112 65.408 5.44 13.888 30.912 52.608 51.264 77.888 22.878 27.331 47.085 51.842 73.154 74.247l0.83 0.697c59.008 47.040 124.544 76.672 189.44 85.504 13.269 1.462 28.657 2.296 44.24 2.296 15.141 0 30.099-0.788 44.834-2.324l-1.842 0.156zM477.184 644.928c-94.322-17.314-164.856-98.883-164.864-196.927v-0.001c0-0.095 0-0.208 0-0.32 0-110.103 89.257-199.36 199.36-199.36 0.113 0 0.225 0 0.338 0h-0.018c0.095 0 0.208 0 0.32 0 110.103 0 199.36 89.257 199.36 199.36 0 0.113 0 0.225 0 0.338v-0.018c0 0.076 0 0.166 0 0.255 0 98.443-71.261 180.243-165.013 196.628l-1.195 0.173c-10.124 1.503-21.81 2.361-33.696 2.361-12.205 0-24.198-0.905-35.916-2.651l1.324 0.162zM540.992 549.44c34.304-10.112 62.272-38.336 72.768-73.28 1.983-8.462 3.12-18.178 3.12-28.16s-1.137-19.698-3.288-29.026l0.168 0.866c-10.879-35.4-38.2-62.721-72.821-73.393l-0.779-0.207c-8.462-1.983-18.178-3.12-28.16-3.12s-19.698 1.137-29.026 3.288l0.866-0.168c-35.466 10.764-62.836 38.134-73.398 72.827l-0.202 0.773c-1.983 8.462-3.12 18.178-3.12 28.16s1.137 19.698 3.288 29.026l-0.168-0.866c12.138 39.896 45.491 69.678 86.599 76.458l0.633 0.086c9.152 1.472 33.92-0.448 43.52-3.264z" />
<glyph unicode="&#xe904;" glyph-name="notification" d="M494.694 913.92c-35.357-6.158-65.214-25.948-84.509-53.645l-0.278-0.422c-2.662-3.84-8.96-7.936-21.248-13.824-80.64-38.656-138.547-108.083-160.102-192-8.243-31.949-8.755-39.066-10.035-130.099-1.536-113.050 0.87-103.629-46.438-181.76-28.314-46.797-33.741-58.214-38.246-80.333-1.276-6.516-2.005-14.010-2.005-21.673 0-21.999 6.014-42.593 16.487-60.228l-0.3 0.545c8.909-14.746 26.112-31.642 42.086-41.472 20.48-12.595 79.258-30.618 139.264-42.65 14.541-2.918 26.573-5.427 26.726-5.632 0.102-0.154 2.56-5.376 5.376-11.674 20.89-46.285 60.877-79.77 111.258-93.133 13.67-3.635 20.019-4.352 40.141-4.352 20.326 0 26.368 0.666 40.704 4.506 49.715 13.158 92.058 49.050 111.309 94.259 4.25 10.035 5.12 11.008 10.752 11.981 52.48 8.96 128.973 30.464 152.678 42.906 42.342 22.221 69.632 75.827 62.669 123.238-3.738 25.6-6.093 30.72-42.189 90.88-41.574 69.427-39.987 62.771-41.626 174.592-1.28 90.88-1.843 98.099-9.984 129.997-21.248 83.046-81.766 155.494-160.922 192.461-11.008 5.171-17.613 9.37-20.122 12.851-24.525 34.406-57.549 53.197-97.434 55.398-2.334 0.138-5.065 0.217-7.813 0.217-5.708 0-11.338-0.339-16.869-0.998l0.669 0.065zM542.771 794.368c79.104-9.677 149.094-66.867 175.616-143.462 10.598-30.771 10.752-32.051 12.083-129.536 1.126-83.2 1.485-90.675 4.864-104.96 9.216-38.554 15.616-52.48 52.070-113.254 13.722-22.886 25.805-44.749 26.829-48.64 5.376-19.866-5.376-43.469-24.269-53.248-12.442-6.4-70.349-22.374-110.694-30.464-58.010-11.674-98.509-15.411-166.4-15.462-69.12-0.051-107.776 3.635-170.701 16.282-43.622 8.755-101.376 25.344-112.845 32.461-12.783 7.637-21.211 21.401-21.211 37.134 0 4.527 0.698 8.89 1.991 12.989l-0.083-0.305c0.973 3.482 13.926 26.522 28.774 51.2 37.171 61.594 41.83 71.629 50.893 108.749 4.301 17.664 4.403 19.251 5.581 107.52 1.28 96.563 1.485 98.867 11.418 128 26.419 77.414 95.283 134.81 173.722 144.845 9.578 1.064 20.683 1.671 31.93 1.671 10.717 0 21.306-0.551 31.739-1.627l-1.307 0.109zM565.965 74.547c-14.693-10.79-33.137-17.267-53.094-17.267s-38.402 6.477-53.346 17.443l0.252-0.176-5.325 3.942h116.787l-5.274-3.942z" />
<glyph unicode="&#xe905;" glyph-name="search-normal" d="M451.403 877.538c-68.427-8.493-123.904-27.588-178.357-61.259-31.142-19.275-72.282-55.236-96.798-84.751-59.461-71.001-95.574-163.321-95.574-264.075 0-24.148 2.074-47.811 6.055-70.822l-0.352 2.458c6.686-39.876 17.709-73.487 37.286-113.483 40.090-81.203 104.138-145.465 182.827-184.77l2.336-1.056c36.637-18.727 79.175-32.643 124.044-39.464l2.33-0.291c27.528-4.096 85.835-4.096 112.64 0.060 77.463 11.987 144.324 40.96 202.27 87.642 25.857 21.918 48.88 45.628 69.449 71.384l0.786 1.018c31.443 41.683 56.621 93.967 69.873 144.866 7.932 30.933 12.485 66.445 12.485 103.020 0 31.739-3.428 62.676-9.935 92.463l0.522-2.85c-24.745 106.365-87.689 195.021-173.262 252.651l-1.481 0.94c-51.505 34.182-113.038 57.566-179.324 65.464l-1.985 0.193c-15.36 1.687-74.089 2.108-85.835 0.663zM537.961 816.399c67.352-9.207 127.134-36.177 176.052-75.985l-0.647 0.51c15.179-12.288 45.598-43.249 56.561-57.645 34.094-44.389 58.422-98.046 68.769-156.529l0.321-2.191c4.277-25.178 5.060-72.824 1.566-99.81-19.093-151.778-132.653-272.35-279.173-301.764l-2.246-0.376c-20.050-4.039-43.099-6.351-66.688-6.351-39.39 0-77.274 6.447-112.655 18.342l2.492-0.727c-92.23 31.093-165.791 96.557-206.831 180.782l-0.92 2.092c-21.492 44.225-34.054 96.204-34.054 151.116 0 50.713 10.715 98.924 30.004 142.491l-0.889-2.249c30.102 67.127 78.015 121.743 137.767 159.229l1.497 0.876c39.991 24.32 87.028 41.532 137.326 48.568l1.938 0.222c19.516 2.53 68.728 2.168 89.811-0.602zM823.718 154.293c-11.707-4.052-19.964-14.982-19.964-27.841 0-5.019 1.258-9.745 3.476-13.879l-0.077 0.157c4.216-8.132 88.124-91.678 94.509-94.088 3.344-1.392 7.228-2.201 11.301-2.201 16.634 0 30.118 13.484 30.118 30.118 0 2.819-0.387 5.547-1.111 8.135l0.051-0.212c-1.747 6.505-7.529 13.071-43.912 49.754-23.070 23.191-44.695 44.092-48.068 46.381-4.705 3.274-10.54 5.232-16.833 5.232-3.396 0-6.659-0.57-9.699-1.62l0.209 0.063z" />
<glyph unicode="&#xe906;" glyph-name="menu" d="M158.805 659.328c-13.739-3.968-25.984-17.28-29.397-31.957-4.907-21.333 9.472-44.288 31.147-49.621 5.376-1.323 108.843-1.707 355.712-1.365 332.459 0.427 348.459 0.597 354.389 3.584 8.021 3.968 17.451 13.44 21.333 21.376 4.096 8.363 4.096 26.283 0 34.645-5.030 9.054-12.292 16.33-21.060 21.235l-0.274 0.141c-5.973 2.987-21.76 3.115-356.096 3.413-228.053 0.171-351.915-0.341-355.755-1.451zM158.805 317.995c-13.739-3.968-25.984-17.28-29.397-31.957-4.907-21.333 9.472-44.288 31.147-49.621 5.376-1.323 108.843-1.707 355.712-1.365 332.459 0.427 348.459 0.597 354.389 3.584 8.021 3.968 17.451 13.44 21.333 21.376 4.096 8.363 4.096 26.283 0 34.645-5.030 9.054-12.292 16.33-21.060 21.235l-0.274 0.141c-5.973 2.987-21.76 3.115-356.096 3.413-228.053 0.171-351.915-0.341-355.755-1.451z" />
<glyph unicode="&#xe907;" glyph-name="activity" d="M690.773 874.667h-357.547c-155.307 0-247.893-92.587-247.893-247.893v-357.12c0-155.733 92.587-248.32 247.893-248.32h357.12c155.307 0 247.893 92.587 247.893 247.893v357.547c0.427 155.307-92.16 247.893-247.467 247.893zM736.427 535.040l-98.56-127.147c-12.373-15.787-29.867-26.027-49.92-28.16-20.053-2.56-39.68 2.987-55.467 15.36l-78.080 61.44c-2.987 2.56-6.4 2.56-8.107 2.133-1.707 0-4.693-0.853-7.253-4.267l-101.547-131.84c-6.4-8.107-15.787-12.373-25.173-12.373-6.827 0-13.653 2.133-19.627 6.827-14.080 10.667-16.64 30.72-5.973 44.8l101.547 131.84c12.373 15.787 29.867 26.027 49.92 28.587 19.627 2.56 39.68-2.987 55.467-15.36l78.080-61.44c2.987-2.56 5.973-2.56 8.107-2.133 1.707 0 4.693 0.853 7.253 4.267l98.56 127.147c10.667 14.080 31.147 16.64 44.8 5.547 14.080-11.52 16.64-31.573 5.973-45.227z" />
<glyph unicode="&#xe908;" glyph-name="chevron-up" d="M797.010 363.52l-136.96 136.961-83.625 84.053c-35.415 35.414-93.013 35.414-128.426 0l-221.014-221.014c-29.014-29.015-8.106-78.505 32.426-78.505h505.173c40.96 0 61.44 49.49 32.425 78.505z" />
<glyph unicode="&#xe909;" glyph-name="bitcoin-btc" d="M638.72 416h-232.105v-120.747h232.105c40.533 0 73.813 27.307 73.813 60.587s-33.28 60.16-73.813 60.16zM512 874.667c-235.52 0-426.667-191.147-426.667-426.667s191.147-426.667 426.667-426.667c235.52 0 426.667 191.147 426.667 426.667s-191.147 426.667-426.667 426.667zM638.72 231.253h-70.4v-60.587c0-17.493-14.507-32-32-32s-32 14.507-32 32v60.587h-51.627v-60.587c0-17.493-14.507-32-32-32s-32 14.507-32 32v60.587h-87.893c-17.493 0-32 14.507-32 32s14.507 32 32 32h41.813v305.493h-41.813c-17.493 0-32 14.507-32 32s14.507 32 32 32h87.893v60.587c0 17.493 14.507 32 32 32s32-14.507 32-32v-60.587h51.627v60.587c0 17.493 14.507 32 32 32s32-14.507 32-32v-60.587h37.547c66.133 0 124.587-58.027 124.587-124.587 0-28.587-10.24-54.613-26.453-75.947 43.093-20.907 72.533-61.867 72.533-109.227 0-67.84-61.867-123.733-137.813-123.733zM666.453 540.588c0 28.16-26.453 60.587-60.587 60.587h-199.252v-120.748h199.252c33.28-0.427 60.587 26.88 60.587 60.161z" />
<glyph unicode="&#xe90a;" glyph-name="card-pos" d="M938.667 53.333c0-17.493-14.507-32-32-32h-789.333c-17.493 0-32 14.507-32 32s14.507 32 32 32h789.333c17.493 0 32-14.507 32-32zM656.64 767.146l-458.24-458.24c-17.493-17.493-45.653-17.493-62.72 0h-0.427c-59.307 59.733-59.307 156.16 0 215.467l305.067 305.066c59.733 59.733 156.16 59.733 215.893 0 17.493-16.64 17.493-45.227 0.427-62.293zM888.32 597.76l-130.133 130.133c-17.493 17.493-45.653 17.493-62.72 0l-458.24-458.24c-17.493-17.067-17.493-45.227 0-62.72l130.133-130.56c59.733-59.307 156.16-59.307 215.893 0l304.64 305.067c60.587 59.733 60.587 156.587 0.427 216.32zM544.427 212.48l-51.627-52.053c-10.667-10.667-28.16-10.667-39.253 0-10.667 10.667-10.667 28.16 0 39.253l52.053 52.053c10.24 10.24 28.16 10.24 38.827 0 10.667-10.667 10.667-29.013 0-39.253zM713.813 381.867l-104.107-104.533c-10.667-10.24-28.16-10.24-39.253 0-10.667 10.667-10.667 28.16 0 39.253l104.533 104.533c10.24 10.24 28.16 10.24 38.827 0 10.667-11.093 10.667-28.587 0-39.253z" />
<glyph unicode="&#xe90b;" glyph-name="category" d="M308.906 874.665h-81.066c-93.44 0-142.507-49.066-142.507-142.080v-81.066c0-93.014 49.067-142.080 142.080-142.080h81.067c93.013 0 142.080 49.066 142.080 142.080v81.066c0.426 93.014-48.64 142.080-141.654 142.080zM796.585 874.665h-81.065c-93.015 0-142.080-49.066-142.080-142.080v-81.066c0-93.014 49.065-142.080 142.080-142.080h81.065c93.015 0 142.080 49.066 142.080 142.080v81.066c0 93.014-49.065 142.080-142.080 142.080zM796.585 386.985h-81.065c-93.015 0-142.080-49.065-142.080-142.080v-81.065c0-93.015 49.065-142.080 142.080-142.080h81.065c93.015 0 142.080 49.065 142.080 142.080v81.065c0 93.015-49.065 142.080-142.080 142.080zM308.906 386.985h-81.066c-93.44 0-142.507-49.065-142.507-142.080v-81.065c0-93.44 49.067-142.505 142.080-142.505h81.067c93.013 0 142.080 49.065 142.080 142.080v81.065c0.426 93.44-48.64 142.505-141.654 142.505z" />
<glyph unicode="&#xe90c;" glyph-name="chart-2" d="M690.773 874.667h-357.547c-155.307 0-247.893-92.587-247.893-247.893v-357.12c0-155.733 92.587-248.32 247.893-248.32h357.12c155.307 0 247.893 92.587 247.893 247.893v357.547c0.427 155.307-92.16 247.893-247.467 247.893zM422.827 269.227c0-27.307-22.187-49.493-49.92-49.493-27.307 0-49.493 22.187-49.493 49.493v139.093c0 27.307 22.187 49.493 49.493 49.493 27.733 0 49.92-22.187 49.92-49.493v-139.093zM700.587 269.227c0-27.307-22.187-49.493-49.493-49.493-27.733 0-49.92 22.187-49.92 49.493v357.547c0 27.307 22.187 49.493 49.92 49.493 27.307 0 49.493-22.187 49.493-49.493v-357.547z" />
<glyph unicode="&#xe90d;" glyph-name="coin" d="M935.255 245.33c-14.080-113.49-107.095-206.505-220.59-220.585-68.69-8.535-132.69 10.24-182.61 46.935-28.588 20.905-21.762 65.28 12.37 75.52 128.43 38.825 229.55 140.37 268.8 268.8 10.24 33.706 54.615 40.532 75.52 12.37 36.27-50.345 55.040-114.345 46.51-183.040zM426.24 874.665c-188.16 0-340.907-152.746-340.907-340.906s152.747-340.909 340.907-340.909 340.905 152.75 340.905 340.909c-0.425 188.16-152.745 340.906-340.905 340.906zM386.133 581.545l102.827-35.84c37.12-13.226 55.040-39.253 55.040-79.36 0-46.081-36.694-84.056-81.494-84.056h-3.84v-2.13c0-17.495-14.506-32-32-32s-32 14.505-32 32v2.56c-47.36 2.13-85.334 41.81-85.334 91.305 0 17.494 14.507 32 32 32s32-14.506 32-32c0-15.36 11.094-27.736 24.747-27.736h64c9.813 0 17.493 8.963 17.493 20.056 0 14.934-2.56 15.787-12.373 19.2l-102.827 35.84c-36.693 12.8-55.040 38.827-55.040 79.36 0 46.080 36.694 84.054 81.494 84.054h3.84v1.706c0 17.494 14.506 32 32 32s32-14.506 32-32v-2.56c47.36-2.133 85.334-41.813 85.334-91.306 0-17.494-14.505-32-32-32s-32 14.506-32 32c0 15.36-11.094 27.734-24.747 27.734h-64c-9.813 0-17.493-8.96-17.493-20.054-0.427-14.506 2.133-15.36 12.373-18.774z" />
<glyph unicode="&#xe90e;" glyph-name="money-add" d="M725.335 789.335h-426.669c-128 0-213.334-64-213.334-213.334v-151.891c0-15.79 16.214-25.6 30.294-19.2 41.814 19.2 90.026 26.45 140.8 17.49 112.214-20.050 194.56-124.16 191.574-238.080-0.427-17.92-2.987-35.41-7.68-52.48-3.414-13.225 7.253-25.6 20.906-25.6h264.109c128 0 213.33 64 213.33 213.335v256.426c0 149.334-85.33 213.334-213.33 213.334zM512 341.335c-58.88 0-106.667 47.785-106.667 106.666 0 58.88 47.787 106.666 106.667 106.666s106.665-47.786 106.665-106.666c0-58.881-47.785-106.666-106.665-106.666zM821.335 362.67c0-17.495-14.51-32-32-32-17.495 0-32 14.505-32 32v170.664c0 17.493 14.505 32 32 32 17.49 0 32-14.507 32-32v-170.664zM213.334 362.665c-94.294 0-170.667-76.375-170.667-170.665 0-32 8.96-62.295 24.747-87.895 29.44-49.495 83.626-82.775 145.92-82.775s116.48 33.28 145.92 82.775c15.786 25.6 24.746 55.895 24.746 87.895 0 94.29-76.373 170.665-170.666 170.665zM276.907 160.85h-31.574v-33.28c0-17.49-14.506-32-32-32s-32 14.51-32 32v33.28h-31.574c-17.493 0-32 14.51-32 32 0 17.495 14.507 32 32 32h31.574v30.295c0 17.495 14.506 32 32 32s32-14.505 32-32v-30.295h31.574c17.493 0 32-14.505 32-32 0-17.49-14.080-32-32-32z" />
<glyph unicode="&#xe90f;" glyph-name="money-tick" d="M725.333 789.333h-426.667c-128 0-213.333-64-213.333-213.333v-151.893c0-15.787 16.213-25.6 30.293-19.2 41.813 19.2 90.027 26.453 140.8 17.493 112.213-20.053 194.56-124.16 191.573-238.080-0.427-17.92-2.987-35.413-7.68-52.48-3.413-13.227 7.253-25.6 20.907-25.6h264.107c128 0 213.333 64 213.333 213.333v256.427c0 149.333-85.333 213.333-213.333 213.333zM512 341.333c-58.88 0-106.667 47.787-106.667 106.667s47.787 106.667 106.667 106.667c58.88 0 106.667-47.787 106.667-106.667s-47.787-106.667-106.667-106.667zM821.333 362.667c0-17.493-14.507-32-32-32s-32 14.507-32 32v170.667c0 17.493 14.507 32 32 32s32-14.507 32-32v-170.667zM213.333 362.667c-94.293 0-170.667-76.373-170.667-170.667 0-32 8.96-62.293 24.747-87.893 29.44-49.493 83.627-82.773 145.92-82.773s116.48 33.28 145.92 82.773c15.787 25.6 24.747 55.893 24.747 87.893 0 94.293-76.373 170.667-170.667 170.667zM297.387 206.080l-90.88-84.053c-5.973-5.547-14.080-8.533-21.76-8.533-8.107 0-16.213 2.987-22.613 9.387l-42.24 42.24c-12.373 12.373-12.373 32.853 0 45.227s32.853 12.373 45.227 0l20.48-20.48 68.267 63.147c12.8 11.947 33.28 11.093 45.227-1.707s11.093-33.28-1.707-45.227z" />
<glyph unicode="&#xe910;" glyph-name="moneys" d="M817.92 676.692c-18.347 92.587-87.040 133.12-182.613 133.12h-374.612c-112.64 0-187.733-56.32-187.733-187.733v-219.732c0-94.72 38.827-150.187 102.827-174.080 9.387-3.413 19.627-6.4 30.293-8.107 17.067-3.84 35.413-5.547 54.613-5.547h375.039c112.64 0 187.733 56.32 187.733 187.733v219.732c0 20.053-1.707 37.973-5.547 54.613zM235.948 448c0-17.493-14.507-32-32-32s-32 14.507-32 32v127.999c0 17.493 14.507 32 32 32s32-14.507 32-32v-127.999zM448 399.36c-62.292 0-112.639 50.347-112.639 112.64s50.347 112.639 112.639 112.639c62.293 0 112.64-50.347 112.64-112.639s-50.347-112.64-112.64-112.64zM723.627 448c0-17.493-14.507-32-32-32s-32 14.507-32 32v127.999c0 17.493 14.507 32 32 32s32-14.507 32-32v-127.999zM951.467 494.080v-219.733c0-131.413-75.093-188.16-188.16-188.16h-374.613c-32 0-60.587 4.693-85.333 14.080-20.053 7.253-37.547 17.92-51.627 31.573-7.68 7.253-1.707 18.773 8.96 18.773h374.613c157.867 0 251.733 93.867 251.733 251.307v220.161c0 10.24 11.52 16.64 18.773 8.96 29.013-30.72 45.653-75.52 45.653-136.961z" />
<glyph unicode="&#xe911;" glyph-name="moon" d="M918.615 280.315c-6.83 11.52-26.030 29.44-73.815 20.91-26.455-4.695-53.335-6.83-80.215-5.55-99.41 4.27-189.44 49.92-252.16 120.32-55.465 61.869-89.598 142.509-90.025 229.549 0 48.64 9.386 95.573 28.586 139.946 18.774 43.094 5.547 65.706-3.84 75.094-9.813 9.813-32.853 23.466-78.080 4.693-174.506-73.386-282.453-248.32-269.653-435.627 12.8-176.215 136.533-326.825 300.373-383.575 39.254-13.65 80.64-21.76 123.309-23.465 6.825-0.425 13.65-0.855 20.48-0.855 142.93 0 276.905 67.415 361.385 182.19 28.585 39.68 20.905 64.85 13.655 76.37z" />
<glyph unicode="&#xe912;" glyph-name="receipt-2" d="M673.28 874.667h-322.56c-161.28 0-201.387-43.093-201.387-215.040v-480.427c0-113.493 62.293-140.373 137.813-59.307l0.427 0.427c34.987 37.12 88.32 34.133 118.613-6.4l43.093-57.6c34.56-45.653 90.453-45.653 125.013 0l43.093 57.6c30.72 40.96 84.053 43.947 119.040 6.4 75.947-81.067 137.813-54.187 137.813 59.307v480c0.427 171.947-39.68 215.040-200.96 215.040zM331.947 448c-23.467 0-42.667 19.2-42.667 42.667s19.2 42.667 42.667 42.667c23.467 0 42.667-19.2 42.667-42.667s-19.2-42.667-42.667-42.667zM331.947 618.667c-23.467 0-42.667 19.2-42.667 42.667s19.2 42.667 42.667 42.667c23.467 0 42.667-19.2 42.667-42.667s-19.2-42.667-42.667-42.667zM692.48 458.667h-234.667c-17.493 0-32 14.507-32 32s14.507 32 32 32h234.667c17.493 0 32-14.507 32-32s-14.507-32-32-32zM692.48 629.333h-234.667c-17.493 0-32 14.507-32 32s14.507 32 32 32h234.667c17.493 0 32-14.507 32-32s-14.507-32-32-32z" />
<glyph unicode="&#xe913;" glyph-name="setting-2" d="M857.6 566.612c-77.225 0-108.8 54.613-70.4 121.6 22.185 38.826 8.96 88.32-29.865 110.506l-73.815 42.24c-33.705 20.054-77.225 8.106-97.28-25.6l-4.695-8.106c-38.4-66.987-101.545-66.987-140.372 0l-4.693 8.106c-19.2 33.706-62.72 45.654-96.427 25.6l-73.813-42.24c-38.827-22.186-52.054-72.106-29.867-110.934 38.827-66.56 7.254-121.173-69.973-121.173-44.374 0-81.067-36.267-81.067-81.067v-75.095c0-44.37 36.267-81.065 81.067-81.065 77.226 0 108.8-54.615 69.973-121.6-22.186-38.825-8.96-88.32 29.867-110.505l73.813-42.24c33.707-20.055 77.227-8.11 97.28 25.6l4.694 8.105c38.4 66.985 101.549 66.985 140.374 0l4.695-8.105c20.050-33.71 63.57-45.655 97.28-25.6l73.81 42.24c38.83 22.185 52.055 72.105 29.87 110.505-38.83 66.985-7.255 121.6 69.97 121.6 44.375 0 81.070 36.265 81.070 81.065v75.095c-0.43 44.374-36.695 81.067-81.495 81.067zM512 309.33c-76.374 0-138.667 62.295-138.667 138.67 0 76.372 62.294 138.665 138.667 138.665 76.375 0 138.665-62.293 138.665-138.665 0-76.375-62.29-138.67-138.665-138.67z" />
<glyph unicode="&#xe914;" glyph-name="sun" d="M512 149.335c164.951 0 298.665 133.719 298.665 298.667 0 164.949-133.714 298.666-298.665 298.666-164.949 0-298.667-133.718-298.667-298.666s133.718-298.667 298.667-298.667zM512-19.63c-23.466 0-42.666 17.495-42.666 40.96v3.415c0 23.465 19.2 42.665 42.666 42.665s42.665-19.2 42.665-42.665-19.2-44.375-42.665-44.375zM816.64 100.69c-11.095 0-21.76 4.27-30.295 12.375l-5.545 5.545c-16.64 16.64-16.64 43.52 0 60.16s43.52 16.64 60.16 0l5.545-5.545c16.64-16.64 16.64-43.52 0-60.16-8.105-8.105-18.77-12.375-29.865-12.375zM207.36 100.69c-11.093 0-21.76 4.27-30.293 12.375-16.64 16.64-16.64 43.52 0 60.16l5.546 5.545c16.64 16.64 43.52 16.64 60.16 0s16.64-43.52 0-60.16l-5.546-5.545c-8.107-8.105-19.2-12.375-29.867-12.375zM938.665 405.33h-3.41c-23.47 0-42.67 19.2-42.67 42.67 0 23.464 19.2 42.664 42.67 42.664 23.465 0 44.37-19.2 44.37-42.664 0-23.47-17.49-42.67-40.96-42.67zM88.747 405.33h-3.414c-23.466 0-42.667 19.2-42.667 42.67 0 23.464 19.2 42.664 42.667 42.664s44.374-19.2 44.374-42.664c0-23.47-17.494-42.67-40.96-42.67zM811.095 704.424c-11.095 0-21.76 4.267-30.295 12.374-16.64 16.64-16.64 43.52 0 60.16l5.545 5.546c16.64 16.64 43.52 16.64 60.16 0s16.64-43.52 0-60.16l-5.545-5.546c-8.105-8.106-18.775-12.374-29.865-12.374zM212.907 704.424c-11.094 0-21.76 4.267-30.294 12.374l-5.546 5.974c-16.64 16.64-16.64 43.52 0 60.16s43.52 16.64 60.16 0l5.546-5.547c16.64-16.64 16.64-43.52 0-60.16-8.106-8.533-19.2-12.8-29.866-12.8zM512 830.291c-23.466 0-42.666 17.493-42.666 40.96v3.413c0 23.467 19.2 42.667 42.666 42.667s42.665-19.2 42.665-42.667-19.2-44.373-42.665-44.373z" />
<glyph unicode="&#xe915;" glyph-name="wallet-2" d="M938.665 491.945v-87.896c0-23.465-18.77-42.665-42.665-43.52h-83.625c-46.080 0-88.32 33.71-92.16 79.79-2.56 26.879 7.68 52.052 25.6 69.545 15.785 16.214 37.545 25.6 61.44 25.6h88.745c23.895-0.853 42.665-20.053 42.665-43.52zM873.385 296.53h-61.010c-81.070 0-149.335 61.015-156.16 138.67-3.84 44.372 12.37 88.745 44.8 120.319 27.305 28.16 65.28 43.946 106.24 43.946h66.13c12.375 0 22.615 10.24 21.335 22.614-9.385 103.68-78.080 174.506-180.055 186.454-10.24 1.706-20.905 2.133-32 2.133h-383.998c-11.946 0-23.466-0.853-34.56-2.56-108.8-13.653-178.774-94.72-178.774-210.773v-298.668c0-117.76 95.574-213.335 213.334-213.335h383.998c119.47 0 201.815 74.67 212.055 188.59 1.28 12.37-8.96 22.61-21.335 22.61zM554.665 543.999h-255.998c-17.494 0-32 14.506-32 32s14.506 32 32 32h255.998c17.495 0 32-14.506 32-32s-14.505-32-32-32z" />
<glyph unicode="&#xe916;" glyph-name="wallet" d="M509.44 865.706l-102.827-239.359h-102.827c-17.067 0-33.707-1.28-49.92-4.693l42.667 102.4 1.707 3.84 2.56 6.827c1.28 2.987 2.133 5.547 3.413 7.68 49.493 114.773 104.96 150.613 205.227 123.306zM799.147 614.827l-0.853 0.427c-25.6 7.253-51.627 11.093-78.080 11.093h-267.093l97.28 226.134c5.973-2.133 12.373-5.12 18.773-7.253l94.293-39.68c52.48-21.76 89.173-44.373 111.787-71.68 3.84-5.12 7.253-9.813 10.667-15.36 3.84-5.973 6.827-11.947 8.533-18.347 1.707-3.84 2.987-7.253 3.84-11.093 6.4-21.76 6.827-46.507 0.853-74.24zM534.187 206.507h10.667c12.8 0 23.467 11.52 23.467 25.6 0 17.92-5.12 20.48-16.213 24.747l-17.92 6.4v-56.747zM780.373 553.813c-19.2 5.547-39.253 8.533-60.16 8.533h-416.427c-29.013 0-56.32-5.547-81.92-16.64-74.24-32-126.293-105.813-126.293-191.573v-83.2c0-10.24 0.853-20.053 2.133-30.293 9.387-135.68 81.92-208.213 217.6-217.173 9.813-1.28 19.627-2.133 30.293-2.133h332.8c157.867 0 241.067 75.093 249.173 224.427 0.427 8.107 0.853 16.64 0.853 25.173v83.2c0 94.293-62.72 173.653-148.053 199.68zM566.613 298.667c19.627-6.827 46.080-21.333 46.080-66.56 0-38.827-30.293-69.973-67.84-69.973h-10.667v-9.387c0-12.373-9.813-22.187-22.187-22.187s-22.187 9.813-22.187 22.187v9.387h-3.84c-40.96 0-74.667 34.56-74.667 77.227 0 12.373 9.813 22.187 22.187 22.187s22.187-9.813 22.187-22.187c0-17.92 13.653-32.853 30.293-32.853h3.84v72.107l-32.427 11.52c-19.627 6.827-46.080 21.333-46.080 66.56 0 38.827 30.293 69.973 67.84 69.973h10.667v9.387c0 12.373 9.813 22.187 22.187 22.187s22.187-9.813 22.187-22.187v-9.387h3.84c40.96 0 74.667-34.56 74.667-77.227 0-12.373-9.813-22.187-22.187-22.187s-22.187 9.813-22.187 22.187c0 17.92-13.653 32.853-30.293 32.853h-3.84v-72.107l32.427-11.52zM455.68 356.693c0-17.92 5.12-20.48 16.213-24.747l17.92-6.4v56.747h-10.667c-13.227 0-23.467-11.52-23.467-25.6z" />
<glyph unicode="&#xe917;" glyph-name="security" d="M782.080 718.080l-500.907-500.907c-18.773-18.773-50.347-16.213-65.707 5.973-52.907 77.227-84.053 168.533-84.053 262.4v187.307c0 34.987 26.453 74.667 58.88 87.893l237.653 97.28c53.76 22.187 113.493 22.187 167.253 0l172.8-70.4c28.16-11.52 35.413-48.213 14.080-69.547zM822.187 659.627c27.733 23.467 69.973 3.413 69.973-32.853v-141.227c0-208.64-151.467-404.053-358.4-461.227-14.080-3.84-29.44-3.84-43.947 0-60.587 17.067-116.907 45.653-165.12 83.2-20.48 15.787-22.613 45.653-4.693 64 93.013 95.147 365.227 372.48 502.187 488.107z" />
<glyph unicode="&#xe918;" glyph-name="copy" horiz-adv-x="964" d="M445.736 16.312h-168.659c-157.014 0-226.886 69.873-226.886 226.888v168.658c0 157.014 69.873 226.886 226.886 226.886h168.659c157.014 0 226.887-69.873 226.887-226.886v-168.658c0-157.015-69.873-226.888-226.887-226.888zM277.078 578.509c-124.486 0-166.651-42.165-166.651-166.651v-168.658c0-124.488 42.165-166.653 166.651-166.653h168.659c124.486 0 166.652 42.165 166.652 166.653v168.658c0 124.486-42.165 166.651-166.652 166.651h-168.659zM686.676 257.253h-44.171c-16.462 0-30.118 13.655-30.118 30.118v124.488c0 124.486-42.165 166.651-166.652 166.651h-124.486c-16.464 0-30.118 13.653-30.118 30.118v44.172c0 157.014 69.873 226.886 226.886 226.886h168.658c157.015 0 226.888-69.873 226.888-226.886v-168.659c0-157.015-69.873-226.888-226.888-226.888zM672.623 317.488h14.053c124.488 0 166.653 42.166 166.653 166.652v168.659c0 124.486-42.165 166.651-166.653 166.651h-168.658c-124.486 0-166.651-42.165-166.651-166.651v-14.055h94.369c157.014 0 226.887-69.873 226.887-226.886v-94.37z" />
<glyph unicode="&#xe919;" glyph-name="check" d="M837.973 743.765c-6.699-2.261-36.139-31.019-230.827-225.536l-223.104-222.891-95.189 94.933c-91.648 91.477-95.488 95.061-104.405 97.664-11.349 3.328-16.128 3.413-26.155 0.384-10.637-3.329-19.306-10.321-24.721-19.468l-0.111-0.202c-3.883-6.656-4.608-9.813-4.608-20.651s0.683-13.995 4.565-20.48c5.76-9.643 223.616-227.2 231.808-231.467 4.224-2.219 9.728-3.157 18.773-3.157 10.88-0.043 13.952 0.64 20.48 4.523 9.728 5.803 483.2 479.573 487.467 487.808 2.219 4.224 3.157 9.728 3.157 18.773 0.043 10.88-0.64 13.995-4.565 20.651-7.621 13.107-21.599 21.779-37.602 21.779-5.372 0-10.515-0.977-15.262-2.763l0.299 0.099z" />
</font>
</defs>
</svg>
